<svg xmlns="http://www.w3.org/2000/svg" width="32" height="32" viewBox="0 0 32 32"><path d="m 15.94825,4.0016292 a 1.0001,1.0000454 0 0 0 -0.8144,0.4999999 L 2.43265,26.49968 a 1.0001,1.0000454 0 0 0 0.8652,1.5 h 25.4043 a 1.0001,1.0000454 0 0 0 0.8653,-1.5 L 16.86625,4.5016291 a 1.0001,1.0000454 0 0 0 -0.918,-0.4999999 z m 0.051,7.9843798 c 0.5048,0 1.0095,0.33751 1,1.01367 v 5.972661 c 0.01,0.55153 -0.4326,1.00467 -0.9902,1.01367 -0.5576,0.009 -1.0198,-0.44989 -1.0098,-1.01367 v -5.972661 c -0.01,-0.67616 0.4952,-1.01367 1,-1.01367 z m 0.061,10.013671 a 0.99999245,0.99999495 0 0 1 0.1,0.006 1.4999999,1.4999924 0 0 1 1.4003,1.49414 1.4999999,1.4999924 0 0 1 -1.5,1.5 1.4999999,1.4999924 0 0 1 -1.5,-1.5 1.4999999,1.4999924 0 0 1 1.4219,-1.49805 1.4999999,1.4999924 0 0 1 0.01,0 0.99999245,0.99999495 0 0 1 0.07,-0.002 z" font-family="sans-serif" font-weight="400" overflow="visible" style="line-height:normal;font-variant-ligatures:normal;font-variant-position:normal;font-variant-caps:normal;font-variant-numeric:normal;font-variant-alternates:normal;font-feature-settings:normal;text-indent:0;text-align:start;text-decoration-line:none;text-decoration-style:solid;text-decoration-color:#000;text-transform:none;text-orientation:mixed;shape-padding:0;isolation:auto;mix-blend-mode:normal"/></svg>